{"title":"Strike.Back.S04E04.HDTV.Xvid-MrX","uid":8889201,"size":525621025,"categoryP":"video","categoryS":"tv_shows","magnet":"?xt=urn:btih:31fbdd689688e9ec355f6743a9491dbe326d812a&amp;dn=Strike.Back.S04E04.HDTV.Xvid-MrX&amp;tr=udp%3A%2F%2Ftracker.openbittorrent.com%3A80&amp;tr=udp%3A%2F%2Fopen.demonii.com%3A1337&amp;tr=udp%3A%2F%2Ftracker.coppersurfer.tk%3A6969&amp;tr=udp%3A%2F%2Fexodus.desync.com%3A6969","seeders":1,"leechers":0,"uploader":"D.N.M","files":-1,"time":1378542269,"description":"   _____       ____  ___\n  /     ______   /  /\n /   /  _  __      /\n/    Y      | /     \n____|__  /__| /___/  \n        /           _/\n\n\nStrike.Back.S04E04.HDTV.Xvid-MrX\n &lt;a href=&quot;\nhttp://www.cinemax.com/strike-back&quot; rel=&quot;nofollow&quot; target=&quot;_NEW&quot;&gt;\nhttp://www.cinemax.com/strike-back&lt;/a&gt; &lt;a href=&quot;\nhttp://www.imdb.com/title/tt1492179/&quot; rel=&quot;nofollow&quot; target=&quot;_NEW&quot;&gt;\nhttp://www.imdb.com/title/tt1492179/&lt;/a&gt;\n\n\nSource :\nStrike.Back.S04E04.720p.HDTV.x264-2HD\n\n\n\nGeneral\nComplete name                            : Strike.Back.S04E04.HDTV.Xvid-MrX.avi\nFormat                                   : AVI\nFormat/Info                              : Audio Video Interleave\nFile size                                : 501 MiB\nDuration                                 : 47mn 20s\nOverall bit rate mode                    : Variable\nOverall bit rate                         : 1 479 Kbps\n\nVideo\nID                                       : 0\nFormat                                   : MPEG-4 Visual\nFormat profile                           : Advanced Simple@L5\nFormat settings, BVOP                    : 1\nFormat settings, QPel                    : No\nFormat settings, GMC                     : No warppoints\nFormat settings, Matrix                  : Default (H.263)\nMuxing mode                              : Packed bitstream\nCodec ID                                 : XVID\nCodec ID/Hint                            : XviD\nDuration                                 : 47mn 20s\nBit rate                                 : 1 319 Kbps\nWidth                                    : 640 pixels\nHeight                                   : 352 pixels\nDisplay aspect ratio                     : 16:9\nFrame rate                               : 23.976 fps\nColor space                              : YUV\nChroma subsampling                       : 4:2:0\nBit depth                                : 8 bits\nScan type                                : Progressive\nCompression mode                         : Lossy\nBits/(Pixel*Frame)                       : 0.244\nStream size                              : 447 MiB (89%)\nWriting library                          : XviD 1.2.1 (UTC 2008-12-04)\n\nAudio\nID                                       : 1\nFormat                                   : MPEG Audio\nFormat version                           : Version 1\nFormat profile                           : Layer 3\nCodec ID                                 : 55\nCodec ID/Hint                            : MP3\nDuration                                 : 47mn 19s\nBit rate mode                            : Variable\nBit rate                                 : 147 Kbps\nMinimum bit rate                         : 32.0 Kbps\nChannel(s)                               : 2 channels\nSampling rate                            : 48.0 KHz\nCompression mode                         : Lossy\nStream size                              : 49.7 MiB (10%)\nAlignment                                : Aligned on interleaves\nInterleave, duration                     : 24 ms (0.58 video frame)\nInterleave, preload duration             : 256 ms\nTitle                                    : Strike.Back.S04E04\nWriting library                          : LAME3.99r\nEncoding settings                        : -m s -V 4 -q 0 -lowpass 17.5 --vbr-new -b 32\n","torrent":{"xt":"urn:btih:31fbdd689688e9ec355f6743a9491dbe326d812a","amp;dn":"Strike.Back.S04E04.HDTV.Xvid-MrX","amp;tr":["udp%3A%2F%2Ftracker.openbittorrent.com%3A80","udp%3A%2F%2Fopen.demonii.com%3A1337","udp%3A%2F%2Ftracker.coppersurfer.tk%3A6969","udp%3A%2F%2Fexodus.desync.com%3A6969"],"infoHash":"31fbdd689688e9ec355f6743a9491dbe326d812a","infoHashBuffer":{"type":"Buffer","data":[49,251,221,104,150,136,233,236,53,95,103,67,169,73,29,190,50,109,129,42]},"announce":[],"urlList":[]}}